HIERARCHY
ROOT Hips
{
    OFFSET -0.1800 -22.3300 2.8200
    CHANNELS 6 Xposition Yposition Zposition Zrotation Yrotation Xrotation 
    JOINT LeftUpLeg
    {
        OFFSET -0.6800 6.9500 -9.1400
        CHANNELS 3 Zrotation Yrotation Xrotation
        JOINT LeftLeg
        {
            OFFSET -0.4500 3.4300 -37.5200
            CHANNELS 3 Zrotation Yrotation Xrotation
            JOINT LeftFoot
            {
                OFFSET -4.3700 -1.3600 -39.8000
                CHANNELS 3 Zrotation Yrotation Xrotation
                JOINT LeftToe
                {
                    OFFSET 11.9300 2.6400 -5.5800
                    CHANNELS 3 Zrotation Yrotation Xrotation
                    End Site
                    {
                        OFFSET 0.0000 0.0000 0.0000
                    }
                }
            }
        }
    }
    JOINT RightUpLeg
    {
        OFFSET -0.4300 -6.7700 -9.0500
        CHANNELS 3 Zrotation Yrotation Xrotation
        JOINT RightLeg
        {
            OFFSET -0.8900 -3.8300 -38.2600
            CHANNELS 3 Zrotation Yrotation Xrotation
            JOINT RightFoot
            {
                OFFSET -4.2300 1.5800 -39.8400
                CHANNELS 3 Zrotation Yrotation Xrotation
                JOINT RightToe
                {
                    OFFSET 12.3300 -2.5400 -4.8100
                    CHANNELS 3 Zrotation Yrotation Xrotation
                    End Site
                    {
                        OFFSET 0.0000 0.0000 0.0000
                    }
                }
            }
        }
    }
    JOINT Spine
    {
        OFFSET -2.6700 -0.2500 10.9000
        CHANNELS 3 Zrotation Yrotation Xrotation
        JOINT Spine1
        {
            OFFSET 0.1100 0.5500 13.5200
            CHANNELS 3 Zrotation Yrotation Xrotation
            JOINT Spine2
            {
                OFFSET 2.5400 0.1500 5.2900
                CHANNELS 3 Zrotation Yrotation Xrotation
                JOINT Neck
                {
                    OFFSET -4.2900 -0.2800 21.3900
                    CHANNELS 3 Zrotation Yrotation Xrotation
                    JOINT Head
                    {
                        OFFSET 5.1300 0.5200 6.5000
                        CHANNELS 3 Zrotation Yrotation Xrotation
                        End Site
                        {
                            OFFSET 0.0000 0.0000 0.0000
                        }
                    }
                }
                JOINT LeftShoulder
                {
                    OFFSET -3.4100 7.8800 12.1700
                    CHANNELS 3 Zrotation Yrotation Xrotation
                    JOINT LeftArm
                    {
                        OFFSET -0.8900 9.1000 3.0500
                        CHANNELS 3 Zrotation Yrotation Xrotation
                        JOINT LeftForeArm
                        {
                            OFFSET -2.7500 25.9600 -1.2800
                            CHANNELS 3 Zrotation Yrotation Xrotation
                            JOINT LeftHand
                            {
                                OFFSET -1.4900 8.4000 -0.8200
                                CHANNELS 3 Zrotation Yrotation Xrotation
                                End Site
                                {
                                    OFFSET 0.0000 0.0000 0.0000
                                }
                            }
                        }
                    }
                }
                JOINT RightShoulder
                {
                    OFFSET -3.8600 -8.1800 11.8800
                    CHANNELS 3 Zrotation Yrotation Xrotation
                    JOINT RightArm
                    {
                        OFFSET -0.9100 -9.6000 3.2600
                        CHANNELS 3 Zrotation Yrotation Xrotation
                        JOINT RightForeArm
                        {
                            OFFSET -2.1400 -25.3700 -1.3300
                            CHANNELS 3 Zrotation Yrotation Xrotation
                            JOINT RightHand
                            {
                                OFFSET -1.0300 -8.4600 -0.6100
                                CHANNELS 3 Zrotation Yrotation Xrotation
                                End Site
                                {
                                    OFFSET 0.0000 0.0000 0.0000
                                }
                            }
                        }
                    }
                }
            }
        }
    }
}
MOTION
Frames: 10
Frame Time: 0.016667
-0.138531 -0.300582 0.934910 37.649606 -1.541298 -0.621137 -6.566135 -2.700389 0.560202 2.051874 8.778912 -1.675256 12.351579 -6.176490 -3.093709 -12.591137 7.339331 4.292892 -5.569746 1.780549 -5.713095 -2.859069 4.040512 -0.037131 -4.842444 -4.827605 6.794123 -4.422903 9.583878 -3.281103 0.171458 4.513943 2.546906 1.014241 -0.814180 1.182264 1.460829 -0.151860 -0.794964 2.047375 2.070576 -2.268549 0.628678 1.862564 2.096374 -10.976686 -8.111004 -7.563784 -14.051888 -3.585909 -24.222752 -107.151423 11.608122 15.024435 -9.881892 1.593768 26.423517 10.312734 -2.879755 12.115762 21.886049 1.900272 44.692912 115.990295 15.263577 -2.613104 12.941340 -11.032452 -5.051982
-0.141304 -0.297612 0.935979 37.402127 -1.667719 -1.238289 -6.566135 -2.700389 0.560202 2.051874 8.778912 -1.675256 12.351579 -6.176490 -3.093709 -12.591137 7.339331 4.292892 -5.569746 1.780549 -5.713095 -2.859069 4.040512 -0.037131 -4.842444 -4.827605 6.794123 -4.422903 9.583878 -3.281103 0.171458 4.513943 2.546906 1.014241 -0.814180 1.182264 1.460829 -0.151860 -0.794964 2.047375 2.070576 -2.268549 0.628678 1.862564 2.096374 -10.976686 -8.111004 -7.563784 -14.051888 -3.585909 -24.222752 -107.151423 11.608122 15.024435 -9.881892 1.593768 26.423517 10.312734 -2.879755 12.115762 21.886049 1.900272 44.692912 115.990295 15.263577 -2.613104 12.941340 -11.032452 -5.051982
-0.143404 -0.294836 0.937769 37.354741 -1.802103 -1.723132 -5.681118 -2.788548 0.731725 1.600500 9.385605 -0.832564 13.644588 -5.736609 -4.315213 -14.338688 7.080700 4.981107 -5.210527 1.912953 -4.819783 -3.186519 6.653679 0.421090 -5.882531 -6.759043 5.589036 -0.916894 16.199763 3.446785 -2.095191 6.338537 3.287365 -0.856433 -2.019050 2.659502 1.170323 -0.169106 -0.440779 5.544171 1.926606 -2.520097 1.725175 3.486918 1.406977 -12.210955 -9.773839 -5.193219 -13.593005 -4.227820 -19.448677 -103.134815 7.523891 16.879537 -10.628671 2.849483 28.207495 9.925193 -1.147165 12.498618 22.496500 5.519503 44.334207 112.923991 15.611762 -1.210638 14.692243 -12.290390 -6.192431
-0.144120 -0.291369 0.939463 37.718999 -1.944318 -2.019383 -5.681118 -2.788548 0.731725 1.600500 9.385605 -0.832564 13.644588 -5.736609 -4.315213 -14.338688 7.080700 4.981107 -5.210527 1.912953 -4.819783 -3.186519 6.653679 0.421090 -5.882531 -6.759043 5.589036 -0.916894 16.199763 3.446785 -2.095191 6.338537 3.287365 -0.856433 -2.019050 2.659502 1.170323 -0.169106 -0.440779 5.544171 1.926606 -2.520097 1.725175 3.486918 1.406977 -12.210955 -9.773839 -5.193219 -13.593005 -4.227820 -19.448677 -103.134815 7.523891 16.879537 -10.628671 2.849483 28.207495 9.925193 -1.147165 12.498618 22.496500 5.519503 44.334207 112.923991 15.611762 -1.210638 14.692243 -12.290390 -6.192431
-0.144376 -0.286049 0.941321 38.671667 -2.103515 -1.981343 -4.338675 -2.374962 1.551758 -1.276595 9.440284 -2.459788 14.116222 -5.742728 -7.798274 -15.710203 4.856189 0.833096 -5.773772 3.732742 -4.243973 -2.983055 4.237280 0.752690 -10.729098 -4.201165 2.385256 1.397203 16.881495 4.725101 -3.120517 5.508123 3.719483 -1.922779 -1.256776 3.622941 0.521132 -0.360243 0.010550 7.867038 3.671677 -2.912658 4.677728 4.127724 1.513882 -12.531622 -11.339538 -3.114472 -12.040723 -3.998352 -15.396703 -101.419741 6.046379 13.825959 -10.865674 2.355166 18.658607 9.595305 -1.513668 8.859133 21.369664 5.388531 40.532790 119.149446 13.696328 -0.117436 13.531198 -24.376453 1.358848
-0.144282 -0.280421 0.942869 39.553287 -2.331348 -1.452254 -4.338675 -2.374962 1.551758 -1.276595 9.440284 -2.459788 14.116222 -5.742728 -7.798274 -15.710203 4.856189 0.833096 -5.773772 3.732742 -4.243973 -2.983055 4.237280 0.752690 -10.729098 -4.201165 2.385256 1.397203 16.881495 4.725101 -3.120517 5.508123 3.719483 -1.922779 -1.256776 3.622941 0.521132 -0.360243 0.010550 7.867038 3.671677 -2.912658 4.677728 4.127724 1.513882 -12.531622 -11.339538 -3.114472 -12.040723 -3.998352 -15.396703 -101.419741 6.046379 13.825959 -10.865674 2.355166 18.658607 9.595305 -1.513668 8.859133 21.369664 5.388531 40.532790 119.149446 13.696328 -0.117436 13.531198 -24.376453 1.358848
-0.144688 -0.276015 0.944260 39.988983 -2.089536 -1.154355 -4.676817 -0.372965 0.282025 -1.495921 5.845677 -2.660204 14.250457 -4.923299 -7.878373 -17.726445 6.755443 0.175525 -7.204780 5.695066 -5.094403 -3.007130 0.815356 -0.435743 -11.496268 -0.533530 3.141131 1.922778 13.211638 4.389826 -3.526358 4.016034 3.656770 -2.272768 -2.303767 3.920060 0.634746 0.230255 -1.174967 7.589304 5.009950 -3.850020 3.961421 3.864132 2.368814 -17.475835 -11.240118 2.368789 -15.396794 -7.298264 -5.117568 -88.997688 1.257921 15.766815 -8.545139 11.167575 19.492221 10.503372 -2.029636 4.939787 21.167136 5.864620 38.134068 114.866053 11.854228 4.407397 14.465072 -18.753644 -3.397335
-0.144732 -0.272199 0.946039 41.091761 -1.875690 -0.972355 -4.676817 -0.372965 0.282025 -1.495921 5.845677 -2.660204 14.250457 -4.923299 -7.878373 -17.726445 6.755443 0.175525 -7.204780 5.695066 -5.094403 -3.007130 0.815356 -0.435743 -11.496268 -0.533530 3.141131 1.922778 13.211638 4.389826 -3.526358 4.016034 3.656770 -2.272768 -2.303767 3.920060 0.634746 0.230255 -1.174967 7.589304 5.009950 -3.850020 3.961421 3.864132 2.368814 -17.475835 -11.240118 2.368789 -15.396794 -7.298264 -5.117568 -88.997688 1.257921 15.766815 -8.545139 11.167575 19.492221 10.503372 -2.029636 4.939787 21.167136 5.864620 38.134068 114.866053 11.854228 4.407397 14.465072 -18.753644 -3.397335
-0.144515 -0.268641 0.948218 42.366548 -1.493520 -0.927265 -6.008652 0.827408 -0.730544 -2.784573 2.393600 -1.656756 15.091856 -3.981497 -8.919549 -19.886878 9.131772 -1.832963 -7.118210 8.284000 -4.603913 -1.757486 -4.107307 -2.271676 -9.385673 0.423316 3.610133 6.888481 15.893734 7.946148 -5.322527 3.460827 2.655080 -4.706970 -3.274753 5.343138 -0.323528 -0.234564 -1.876414 8.571719 5.180314 -4.762296 2.399755 5.074521 1.576480 -22.679729 -13.474234 9.286318 -18.858124 -9.085219 5.002748 -73.241148 -6.372603 23.956377 -3.583506 23.147723 21.824160 10.721644 -1.767231 4.274636 22.305694 7.775593 40.864357 105.390319 13.378065 7.173672 15.543305 -16.151707 -3.832973
-0.143857 -0.265092 0.950334 43.358951 -0.993282 -1.000509 -6.008652 0.827408 -0.730544 -2.784573 2.393600 -1.656756 15.091856 -3.981497 -8.919549 -19.886878 9.131772 -1.832963 -7.118210 8.284000 -4.603913 -1.757486 -4.107307 -2.271676 -9.385673 0.423316 3.610133 6.888481 15.893734 7.946148 -5.322527 3.460827 2.655080 -4.706970 -3.274753 5.343138 -0.323528 -0.234564 -1.876414 8.571719 5.180314 -4.762296 2.399755 5.074521 1.576480 -22.679729 -13.474234 9.286318 -18.858124 -9.085219 5.002748 -73.241148 -6.372603 23.956377 -3.583506 23.147723 21.824160 10.721644 -1.767231 4.274636 22.305694 7.775593 40.864357 105.390319 13.378065 7.173672 15.543305 -16.151707 -3.832973
